<svg xmlns="http://www.w3.org/2000/svg" width="300" height="300" viewBox="0 0 300 300" role="img" aria-labelledby="title desc">
  <title id="title">Illustration of three vehicles</title>
  <desc id="desc">A white hatchback and beige pickup truck above a large white sedan on a green background.</desc>
  <rect width="300" height="300" fill="#73bf89"/>
  <g stroke="#26363d" stroke-linecap="round" stroke-linejoin="round">
    <!-- hatchback -->
    <path fill="#f5f4f2" stroke-width="1.5" d="M18 69c4-7 10-12 19-16l27-2c13 0 23 3 33 9l16 2c8 1 15 7 20 15l2 10c1 5-3 8-8 8H25c-6 0-9-4-8-10z"/>
    <path fill="#172b36" stroke-width="1.2" d="M40 54h23c12 0 21 2 29 7l4 4H32z"/>
    <path fill="#d6e4e8" stroke-width="1" d="M35 58h25l-6 8H29zM65 58c10 0 18 2 25 6l3 2H60z"/>
    <path fill="#d6e4e8" stroke-width="1" d="M120 70l11 4 2 7-13-1z"/>
    <circle cx="42" cy="87" r="11" fill="#37474f" stroke-width="1.5"/><circle cx="42" cy="87" r="6" fill="#dbe1df" stroke-width="1.2"/>
    <circle cx="114" cy="87" r="11" fill="#37474f" stroke-width="1.5"/><circle cx="114" cy="87" r="6" fill="#dbe1df" stroke-width="1.2"/>
    <path d="M19 98h117" fill="none" stroke="#4c8062" stroke-width="2"/>
    <!-- pickup -->
    <path fill="#f4d7a0" stroke-width="1.5" d="M168 68h42V54h25c10 0 18 4 24 13l5 1 3 14c1 5-3 8-8 8h-87c-5 0-7-3-7-8z"/>
    <path fill="#182d35" stroke-width="1.2" d="M215 56h20c8 0 14 3 19 9h-39z"/>
    <path fill="#dce7e7" stroke-width="1" d="M216 57h18v8h-18zM238 57c7 1 11 3 15 8h-15z"/>
    <path fill="#ec745b" stroke-width="1" d="M169 70h8v8h-8z"/>
    <circle cx="193" cy="88" r="10" fill="#37474f" stroke-width="1.5"/><circle cx="193" cy="88" r="5.5" fill="#dbe1df" stroke-width="1.2"/>
    <circle cx="277" cy="88" r="10" fill="#37474f" stroke-width="1.5"/><circle cx="277" cy="88" r="5.5" fill="#dbe1df" stroke-width="1.2"/>
    <path d="M166 100h130" fill="none" stroke="#4c8062" stroke-width="2"/>
    <!-- sedan -->
    <path fill="#f5f5f1" stroke-width="1.7" d="M20 177c6-12 17-19 32-25l30-16c13-7 29-9 48-9h38c15 0 30 5 43 13l26 15 35 5c8 2 13 7 16 16l3 18c1 6-4 11-11 11H29c-8 0-12-5-11-13z"/>
    <path fill="#172b35" stroke-width="1.5" d="M64 151l22-13c13-7 27-10 44-10h35c14 0 28 4 40 11l20 13H64z"/>
    <path fill="#d5e1e3" stroke-width="1" d="M73 150l18-11c11-6 24-9 39-9h5v20zM141 130h23c13 0 25 4 37 10l15 10h-75z"/>
    <path fill="#d5e1e3" stroke-width="1" d="M232 156l19 3c5 1 8 4 11 8l-25-1z"/>
    <path fill="#de4f49" stroke-width="1" d="M20 169h12l-4 12H19z"/>
    <path fill="#d7e5e7" stroke-width="1" d="M270 164h10l5 9h-13z"/>
    <circle cx="69" cy="194" r="19" fill="#37474f" stroke-width="1.7"/><circle cx="69" cy="194" r="11" fill="#e0e4df" stroke-width="1.2"/><path d="M69 184v20M59 194h20M62 187l14 14M76 187l-14 14" fill="none" stroke="#84949a" stroke-width="2"/>
    <circle cx="230" cy="194" r="19" fill="#37474f" stroke-width="1.7"/><circle cx="230" cy="194" r="11" fill="#e0e4df" stroke-width="1.2"/><path d="M230 184v20M220 194h20M223 187l14 14M237 187l-14 14" fill="none" stroke="#84949a" stroke-width="2"/>
    <path d="M20 218h264" fill="none" stroke="#4c8062" stroke-width="2.5"/>
  </g>
</svg>
